<?xml version="1.0" standalone="no"?>
<!DOCTYPE svg PUBLIC "-//W3C//DTD SVG 20010904//EN"
 "http://www.w3.org/TR/2001/REC-SVG-20010904/DTD/svg10.dtd">
<svg version="1.0" xmlns="http://www.w3.org/2000/svg"
 width="374.000000pt" height="374.000000pt" viewBox="0 0 374.000000 374.000000"
 preserveAspectRatio="xMidYMid meet">
<metadata>
Created by potrace 1.11, written by Peter Selinger 2001-2013
</metadata>
<g transform="translate(0.000000,374.000000) scale(0.100000,-0.100000)"
fill="#000000" stroke="none">
<path d="M1205 3720 c-270 -71 -481 -279 -581 -574 -55 -160 -54 -144 -54
-1276 0 -1132 -1 -1116 54 -1276 116 -342 393 -575 704 -592 l92 -5 0 1872 0
1871 -72 -1 c-40 0 -104 -8 -143 -19z"/>
<path d="M2330 1870 l0 -1870 63 0 c35 0 99 9 143 20 284 73 501 298 601 625
l28 90 0 1135 0 1135 -28 90 c-100 326 -319 554 -601 625 -44 11 -108 20 -143
20 l-63 0 0 -1870z"/>
</g>
</svg>
